{
  "asset": {
    "generator": "glTF-Transform v4.4.2",
    "version": "2.0"
  },
  "accessors": [
    {
      "type": "SCALAR",
      "componentType": 5123,
      "count": 33000,
      "normalized": false,
      "byteOffset": 0,
      "bufferView": 0
    },
    {
      "type": "VEC3",
      "componentType": 5120,
      "count": 6078,
      "normalized": true,
      "byteOffset": 0,
      "bufferView": 1
    },
    {
      "type": "SCALAR",
      "componentType": 5123,
      "count": 32988,
      "normalized": false,
      "byteOffset": 66000,
      "bufferView": 0
    },
    {
      "type": "VEC3",
      "componentType": 5120,
      "count": 6192,
      "normalized": true,
      "byteOffset": 0,
      "bufferView": 2
    },
    {
      "type": "SCALAR",
      "componentType": 5123,
      "count": 15000,
      "normalized": false,
      "byteOffset": 131976,
      "bufferView": 0
    },
    {
      "type": "VEC3",
      "componentType": 5120,
      "count": 2741,
      "normalized": true,
      "byteOffset": 0,
      "bufferView": 3
    },
    {
      "type": "VEC2",
      "componentType": 5126,
      "count": 2741,
      "normalized": false,
      "byteOffset": 0,
      "bufferView": 4
    },
    {
      "type": "SCALAR",
      "componentType": 5123,
      "count": 31767,
      "normalized": false,
      "byteOffset": 161976,
      "bufferView": 0
    },
    {
      "type": "VEC3",
      "componentType": 5120,
      "count": 5691,
      "normalized": true,
      "byteOffset": 0,
      "bufferView": 5
    },
    {
      "type": "SCALAR",
      "componentType": 5123,
      "count": 49644,
      "normalized": false,
      "byteOffset": 225510,
      "bufferView": 0
    },
    {
      "type": "VEC3",
      "componentType": 5120,
      "count": 8538,
      "normalized": true,
      "byteOffset": 0,
      "bufferView": 6
    },
    {
      "type": "SCALAR",
      "componentType": 5123,
      "count": 26982,
      "normalized": false,
      "byteOffset": 324798,
      "bufferView": 0
    },
    {
      "type": "VEC3",
      "componentType": 5120,
      "count": 4748,
      "normalized": true,
      "byteOffset": 0,
      "bufferView": 7
    },
    {
      "type": "VEC3",
      "componentType": 5122,
      "count": 6078,
      "max": [
        21766,
        14325,
        32767
      ],
      "min": [
        -21766,
        -14325,
        -32767
      ],
      "normalized": true,
      "byteOffset": 0,
      "bufferView": 8
    },
    {
      "type": "VEC2",
      "componentType": 5123,
      "count": 6078,
      "normalized": true,
      "byteOffset": 0,
      "bufferView": 9
    },
    {
      "type": "VEC3",
      "componentType": 5122,
      "count": 6192,
      "max": [
        26659,
        12669,
        32767
      ],
      "min": [
        -26659,
        -12669,
        -32767
      ],
      "normalized": true,
      "byteOffset": 0,
      "bufferView": 10
    },
    {
      "type": "VEC2",
      "componentType": 5123,
      "count": 6192,
      "normalized": true,
      "byteOffset": 0,
      "bufferView": 11
    },
    {
      "type": "VEC3",
      "componentType": 5122,
      "count": 2741,
      "max": [
        32767,
        17090,
        32315
      ],
      "min": [
        -32767,
        -17090,
        -32315
      ],
      "normalized": true,
      "byteOffset": 0,
      "bufferView": 12
    },
    {
      "type": "VEC3",
      "componentType": 5122,
      "count": 5691,
      "max": [
        32767,
        27235,
        30259
      ],
      "min": [
        -32767,
        -27235,
        -30259
      ],
      "normalized": true,
      "byteOffset": 0,
      "bufferView": 13
    },
    {
      "type": "VEC2",
      "componentType": 5123,
      "count": 5691,
      "normalized": true,
      "byteOffset": 0,
      "bufferView": 14
    },
    {
      "type": "VEC3",
      "componentType": 5122,
      "count": 8538,
      "max": [
        19858,
        13173,
        32767
      ],
      "min": [
        -19858,
        -13173,
        -32767
      ],
      "normalized": true,
      "byteOffset": 0,
      "bufferView": 15
    },
    {
      "type": "VEC2",
      "componentType": 5123,
      "count": 8538,
      "normalized": true,
      "byteOffset": 0,
      "bufferView": 16
    },
    {
      "type": "VEC3",
      "componentType": 5122,
      "count": 4748,
      "max": [
        25267,
        14997,
        32767
      ],
      "min": [
        -25267,
        -14997,
        -32767
      ],
      "normalized": true,
      "byteOffset": 0,
      "bufferView": 17
    },
    {
      "type": "VEC2",
      "componentType": 5123,
      "count": 4748,
      "normalized": true,
      "byteOffset": 0,
      "bufferView": 18
    }
  ],
  "bufferViews": [
    {
      "buffer": 1,
      "byteOffset": 0,
      "byteLength": 378762,
      "target": 34963,
      "extensions": {
        "EXT_meshopt_compression": {
          "buffer": 0,
          "byteOffset": 0,
          "byteLength": 72584,
          "mode": "TRIANGLES",
          "byteStride": 2,
          "count": 189381
        }
      }
    },
    {
      "buffer": 1,
      "byteOffset": 378764,
      "byteLength": 24312,
      "target": 34962,
      "byteStride": 4,
      "extensions": {
        "EXT_meshopt_compression": {
          "buffer": 0,
          "byteOffset": 72584,
          "byteLength": 12238,
          "mode": "ATTRIBUTES",
          "filter": "OCTAHEDRAL",
          "byteStride": 4,
          "count": 6078
        }
      }
    },
    {
      "buffer": 1,
      "byteOffset": 403076,
      "byteLength": 24768,
      "target": 34962,
      "byteStride": 4,
      "extensions": {
        "EXT_meshopt_compression": {
          "buffer": 0,
          "byteOffset": 84824,
          "byteLength": 12348,
          "mode": "ATTRIBUTES",
          "filter": "OCTAHEDRAL",
          "byteStride": 4,
          "count": 6192
        }
      }
    },
    {
      "buffer": 1,
      "byteOffset": 427844,
      "byteLength": 10964,
      "target": 34962,
      "byteStride": 4,
      "extensions": {
        "EXT_meshopt_compression": {
          "buffer": 0,
          "byteOffset": 97172,
          "byteLength": 5344,
          "mode": "ATTRIBUTES",
          "filter": "OCTAHEDRAL",
          "byteStride": 4,
          "count": 2741
        }
      }
    },
    {
      "buffer": 1,
      "byteOffset": 438808,
      "byteLength": 21928,
      "target": 34962,
      "byteStride": 8,
      "extensions": {
        "EXT_meshopt_compression": {
          "buffer": 0,
          "byteOffset": 102516,
          "byteLength": 14719,
          "mode": "ATTRIBUTES",
          "byteStride": 8,
          "count": 2741
        }
      }
    },
    {
      "buffer": 1,
      "byteOffset": 460736,
      "byteLength": 22764,
      "target": 34962,
      "byteStride": 4,
      "extensions": {
        "EXT_meshopt_compression": {
          "buffer": 0,
          "byteOffset": 117236,
          "byteLength": 10973,
          "mode": "ATTRIBUTES",
          "filter": "OCTAHEDRAL",
          "byteStride": 4,
          "count": 5691
        }
      }
    },
    {
      "buffer": 1,
      "byteOffset": 483500,
      "byteLength": 34152,
      "target": 34962,
      "byteStride": 4,
      "extensions": {
        "EXT_meshopt_compression": {
          "buffer": 0,
          "byteOffset": 128212,
          "byteLength": 15960,
          "mode": "ATTRIBUTES",
          "filter": "OCTAHEDRAL",
          "byteStride": 4,
          "count": 8538
        }
      }
    },
    {
      "buffer": 1,
      "byteOffset": 517652,
      "byteLength": 18992,
      "target": 34962,
      "byteStride": 4,
      "extensions": {
        "EXT_meshopt_compression": {
          "buffer": 0,
          "byteOffset": 144172,
          "byteLength": 9060,
          "mode": "ATTRIBUTES",
          "filter": "OCTAHEDRAL",
          "byteStride": 4,
          "count": 4748
        }
      }
    },
    {
      "buffer": 1,
      "byteOffset": 536644,
      "byteLength": 48624,
      "target": 34962,
      "byteStride": 8,
      "extensions": {
        "EXT_meshopt_compression": {
          "buffer": 0,
          "byteOffset": 153232,
          "byteLength": 28514,
          "mode": "ATTRIBUTES",
          "byteStride": 8,
          "count": 6078
        }
      }
    },
    {
      "buffer": 1,
      "byteOffset": 585268,
      "byteLength": 24312,
      "target": 34962,
      "byteStride": 4,
      "extensions": {
        "EXT_meshopt_compression": {
          "buffer": 0,
          "byteOffset": 181748,
          "byteLength": 16450,
          "mode": "ATTRIBUTES",
          "byteStride": 4,
          "count": 6078
        }
      }
    },
    {
      "buffer": 1,
      "byteOffset": 609580,
      "byteLength": 49536,
      "target": 34962,
      "byteStride": 8,
      "extensions": {
        "EXT_meshopt_compression": {
          "buffer": 0,
          "byteOffset": 198200,
          "byteLength": 28818,
          "mode": "ATTRIBUTES",
          "byteStride": 8,
          "count": 6192
        }
      }
    },
    {
      "buffer": 1,
      "byteOffset": 659116,
      "byteLength": 24768,
      "target": 34962,
      "byteStride": 4,
      "extensions": {
        "EXT_meshopt_compression": {
          "buffer": 0,
          "byteOffset": 227020,
          "byteLength": 16841,
          "mode": "ATTRIBUTES",
          "byteStride": 4,
          "count": 6192
        }
      }
    },
    {
      "buffer": 1,
      "byteOffset": 683884,
      "byteLength": 21928,
      "target": 34962,
      "byteStride": 8,
      "extensions": {
        "EXT_meshopt_compression": {
          "buffer": 0,
          "byteOffset": 243864,
          "byteLength": 14080,
          "mode": "ATTRIBUTES",
          "byteStride": 8,
          "count": 2741
        }
      }
    },
    {
      "buffer": 1,
      "byteOffset": 705812,
      "byteLength": 45528,
      "target": 34962,
      "byteStride": 8,
      "extensions": {
        "EXT_meshopt_compression": {
          "buffer": 0,
          "byteOffset": 257944,
          "byteLength": 27048,
          "mode": "ATTRIBUTES",
          "byteStride": 8,
          "count": 5691
        }
      }
    },
    {
      "buffer": 1,
      "byteOffset": 751340,
      "byteLength": 22764,
      "target": 34962,
      "byteStride": 4,
      "extensions": {
        "EXT_meshopt_compression": {
          "buffer": 0,
          "byteOffset": 284992,
          "byteLength": 15165,
          "mode": "ATTRIBUTES",
          "byteStride": 4,
          "count": 5691
        }
      }
    },
    {
      "buffer": 1,
      "byteOffset": 774104,
      "byteLength": 68304,
      "target": 34962,
      "byteStride": 8,
      "extensions": {
        "EXT_meshopt_compression": {
          "buffer": 0,
          "byteOffset": 300160,
          "byteLength": 39046,
          "mode": "ATTRIBUTES",
          "byteStride": 8,
          "count": 8538
        }
      }
    },
    {
      "buffer": 1,
      "byteOffset": 842408,
      "byteLength": 34152,
      "target": 34962,
      "byteStride": 4,
      "extensions": {
        "EXT_meshopt_compression": {
          "buffer": 0,
          "byteOffset": 339208,
          "byteLength": 22349,
          "mode": "ATTRIBUTES",
          "byteStride": 4,
          "count": 8538
        }
      }
    },
    {
      "buffer": 1,
      "byteOffset": 876560,
      "byteLength": 37984,
      "target": 34962,
      "byteStride": 8,
      "extensions": {
        "EXT_meshopt_compression": {
          "buffer": 0,
          "byteOffset": 361560,
          "byteLength": 22326,
          "mode": "ATTRIBUTES",
          "byteStride": 8,
          "count": 4748
        }
      }
    },
    {
      "buffer": 1,
      "byteOffset": 914544,
      "byteLength": 18992,
      "target": 34962,
      "byteStride": 4,
      "extensions": {
        "EXT_meshopt_compression": {
          "buffer": 0,
          "byteOffset": 383888,
          "byteLength": 13003,
          "mode": "ATTRIBUTES",
          "byteStride": 4,
          "count": 4748
        }
      }
    }
  ],
  "samplers": [
    {
      "magFilter": 9729,
      "minFilter": 9987,
      "wrapS": 10497,
      "wrapT": 10497
    }
  ],
  "textures": [
    {
      "source": 1,
      "sampler": 0
    },
    {
      "source": 0,
      "sampler": 0
    },
    {
      "source": 2,
      "sampler": 0
    }
  ],
  "images": [
    {
      "name": "rock_moss_set_01_nor_gl",
      "mimeType": "image/jpeg",
      "uri": "textures/rock_moss_set_01_nor_gl_1k.jpg"
    },
    {
      "name": "rock_moss_set_01_diff",
      "mimeType": "image/jpeg",
      "uri": "textures/rock_moss_set_01_diff_1k.jpg"
    },
    {
      "name": "rock_moss_set_01_rough",
      "mimeType": "image/jpeg",
      "uri": "textures/rock_moss_set_01_rough_1k.jpg"
    }
  ],
  "buffers": [
    {
      "uri": "rock_moss_set_01.bin",
      "byteLength": 396892
    },
    {
      "byteLength": 933536,
      "extensions": {
        "EXT_meshopt_compression": {
          "fallback": true
        }
      }
    }
  ],
  "materials": [
    {
      "name": "rock_moss_set_01",
      "doubleSided": true,
      "pbrMetallicRoughness": {
        "metallicFactor": 0,
        "baseColorTexture": {
          "index": 0
        },
        "metallicRoughnessTexture": {
          "index": 2
        }
      },
      "normalTexture": {
        "index": 1
      }
    }
  ],
  "meshes": [
    {
      "name": "modelShape.005",
      "primitives": [
        {
          "attributes": {
            "NORMAL": 1,
            "POSITION": 13,
            "TEXCOORD_0": 14
          },
          "mode": 4,
          "material": 0,
          "indices": 0
        }
      ]
    },
    {
      "name": "modelShape.002",
      "primitives": [
        {
          "attributes": {
            "NORMAL": 3,
            "POSITION": 15,
            "TEXCOORD_0": 16
          },
          "mode": 4,
          "material": 0,
          "indices": 2
        }
      ]
    },
    {
      "name": "modelShape",
      "primitives": [
        {
          "attributes": {
            "NORMAL": 5,
            "TEXCOORD_0": 6,
            "POSITION": 17
          },
          "mode": 4,
          "material": 0,
          "indices": 4
        }
      ]
    },
    {
      "name": "medium.001",
      "primitives": [
        {
          "attributes": {
            "NORMAL": 8,
            "POSITION": 18,
            "TEXCOORD_0": 19
          },
          "mode": 4,
          "material": 0,
          "indices": 7
        }
      ]
    },
    {
      "name": "modelShape.003",
      "primitives": [
        {
          "attributes": {
            "NORMAL": 10,
            "POSITION": 20,
            "TEXCOORD_0": 21
          },
          "mode": 4,
          "material": 0,
          "indices": 9
        }
      ]
    },
    {
      "name": "mesh1-geometry.003",
      "primitives": [
        {
          "attributes": {
            "NORMAL": 12,
            "POSITION": 22,
            "TEXCOORD_0": 23
          },
          "mode": 4,
          "material": 0,
          "indices": 11
        }
      ]
    }
  ],
  "nodes": [
    {
      "name": "rock_moss_set_01_rock01",
      "translation": [
        -2.795204818248749,
        0.07978039979934692,
        -2.139419376850128
      ],
      "scale": [
        1.6844021677970886,
        1.6844021677970886,
        1.6844021677970886
      ],
      "mesh": 0
    },
    {
      "name": "rock_moss_set_01_rock02",
      "translation": [
        0.054635465145111084,
        0.16537611186504364,
        -2.1353355050086975
      ],
      "scale": [
        1.6318601965904236,
        1.6318601965904236,
        1.6318601965904236
      ],
      "mesh": 1
    },
    {
      "name": "rock_moss_set_01_rock03",
      "translation": [
        3.0362916588783264,
        0.13897503912448883,
        -2.106608211994171
      ],
      "scale": [
        1.054291307926178,
        1.054291307926178,
        1.054291307926178
      ],
      "mesh": 2
    },
    {
      "name": "rock_moss_set_01_rock04",
      "translation": [
        -2.5864641964435577,
        0.2231893539428711,
        1.672170341014862
      ],
      "scale": [
        1.0638146698474884,
        1.0638146698474884,
        1.0638146698474884
      ],
      "mesh": 3
    },
    {
      "name": "rock_moss_set_01_rock05",
      "translation": [
        0.19799375534057617,
        0.03017088770866394,
        1.6256112456321716
      ],
      "scale": [
        1.4993318915367126,
        1.4993318915367126,
        1.4993318915367126
      ],
      "mesh": 4
    },
    {
      "name": "rock_moss_set_01_rock06",
      "translation": [
        2.6622138917446136,
        0.1028696596622467,
        1.4757240414619446
      ],
      "scale": [
        1.3786515593528748,
        1.3786515593528748,
        1.3786515593528748
      ],
      "mesh": 5
    }
  ],
  "scenes": [
    {
      "name": "Scene",
      "nodes": [
        0,
        1,
        2,
        3,
        4,
        5
      ]
    }
  ],
  "scene": 0,
  "extensionsUsed": [
    "EXT_meshopt_compression",
    "KHR_mesh_quantization"
  ],
  "extensionsRequired": [
    "EXT_meshopt_compression",
    "KHR_mesh_quantization"
  ]
}