{
  "asset": {
    "generator": "glTF-Transform v4.4.2",
    "version": "2.0"
  },
  "accessors": [
    {
      "type": "SCALAR",
      "componentType": 5123,
      "count": 123138,
      "normalized": false,
      "byteOffset": 0,
      "bufferView": 0
    },
    {
      "type": "VEC3",
      "componentType": 5120,
      "count": 22472,
      "normalized": true,
      "byteOffset": 0,
      "bufferView": 1
    },
    {
      "type": "VEC3",
      "componentType": 5122,
      "count": 22472,
      "max": [
        29371,
        11801,
        32767
      ],
      "min": [
        -29371,
        -11801,
        -32767
      ],
      "normalized": true,
      "byteOffset": 0,
      "bufferView": 2
    },
    {
      "type": "VEC2",
      "componentType": 5123,
      "count": 22472,
      "normalized": true,
      "byteOffset": 0,
      "bufferView": 3
    }
  ],
  "bufferViews": [
    {
      "buffer": 1,
      "byteOffset": 0,
      "byteLength": 246276,
      "target": 34963,
      "extensions": {
        "EXT_meshopt_compression": {
          "buffer": 0,
          "byteOffset": 0,
          "byteLength": 47740,
          "mode": "TRIANGLES",
          "byteStride": 2,
          "count": 123138
        }
      }
    },
    {
      "buffer": 1,
      "byteOffset": 246276,
      "byteLength": 89888,
      "target": 34962,
      "byteStride": 4,
      "extensions": {
        "EXT_meshopt_compression": {
          "buffer": 0,
          "byteOffset": 47740,
          "byteLength": 41589,
          "mode": "ATTRIBUTES",
          "filter": "OCTAHEDRAL",
          "byteStride": 4,
          "count": 22472
        }
      }
    },
    {
      "buffer": 1,
      "byteOffset": 336164,
      "byteLength": 179776,
      "target": 34962,
      "byteStride": 8,
      "extensions": {
        "EXT_meshopt_compression": {
          "buffer": 0,
          "byteOffset": 89332,
          "byteLength": 101684,
          "mode": "ATTRIBUTES",
          "byteStride": 8,
          "count": 22472
        }
      }
    },
    {
      "buffer": 1,
      "byteOffset": 515940,
      "byteLength": 89888,
      "target": 34962,
      "byteStride": 4,
      "extensions": {
        "EXT_meshopt_compression": {
          "buffer": 0,
          "byteOffset": 191016,
          "byteLength": 66787,
          "mode": "ATTRIBUTES",
          "byteStride": 4,
          "count": 22472
        }
      }
    }
  ],
  "samplers": [
    {
      "magFilter": 9729,
      "minFilter": 9987,
      "wrapS": 10497,
      "wrapT": 10497
    }
  ],
  "textures": [
    {
      "source": 1,
      "sampler": 0
    },
    {
      "source": 0,
      "sampler": 0
    },
    {
      "source": 2,
      "sampler": 0
    }
  ],
  "images": [
    {
      "name": "tree_stump_01_nor_gl",
      "mimeType": "image/jpeg",
      "uri": "textures/tree_stump_01_nor_gl_1k.jpg"
    },
    {
      "name": "tree_stump_01_diff",
      "mimeType": "image/jpeg",
      "uri": "textures/tree_stump_01_diff_1k.jpg"
    },
    {
      "name": "tree_stump_01_rough",
      "mimeType": "image/jpeg",
      "uri": "textures/tree_stump_01_arm_1k.jpg"
    }
  ],
  "buffers": [
    {
      "uri": "tree_stump_01.bin",
      "byteLength": 257804
    },
    {
      "byteLength": 605828,
      "extensions": {
        "EXT_meshopt_compression": {
          "fallback": true
        }
      }
    }
  ],
  "materials": [
    {
      "name": "tree_stump_01",
      "doubleSided": true,
      "pbrMetallicRoughness": {
        "metallicFactor": 0,
        "baseColorTexture": {
          "index": 0
        },
        "metallicRoughnessTexture": {
          "index": 2
        }
      },
      "normalTexture": {
        "index": 1
      }
    }
  ],
  "meshes": [
    {
      "name": "tt_01_rep.001",
      "primitives": [
        {
          "attributes": {
            "NORMAL": 1,
            "POSITION": 2,
            "TEXCOORD_0": 3
          },
          "mode": 4,
          "material": 0,
          "indices": 0
        }
      ]
    }
  ],
  "nodes": [
    {
      "name": "tree_stump_01",
      "translation": [
        -0.07164418697357178,
        0.09335535764694214,
        0.03471389412879944
      ],
      "scale": [
        0.7951571643352509,
        0.7951571643352509,
        0.7951571643352509
      ],
      "mesh": 0
    }
  ],
  "scenes": [
    {
      "name": "Scene",
      "nodes": [
        0
      ]
    }
  ],
  "scene": 0,
  "extensionsUsed": [
    "EXT_meshopt_compression",
    "KHR_mesh_quantization"
  ],
  "extensionsRequired": [
    "EXT_meshopt_compression",
    "KHR_mesh_quantization"
  ]
}