{
  "asset": {
    "generator": "glTF-Transform v4.4.2",
    "version": "2.0"
  },
  "accessors": [
    {
      "type": "SCALAR",
      "componentType": 5123,
      "count": 249384,
      "normalized": false,
      "byteOffset": 0,
      "bufferView": 0
    },
    {
      "type": "VEC3",
      "componentType": 5120,
      "count": 46112,
      "normalized": true,
      "byteOffset": 0,
      "bufferView": 1
    },
    {
      "type": "VEC3",
      "componentType": 5122,
      "count": 46112,
      "max": [
        32767,
        8533,
        8541
      ],
      "min": [
        -32767,
        -8533,
        -8541
      ],
      "normalized": true,
      "byteOffset": 0,
      "bufferView": 2
    },
    {
      "type": "VEC2",
      "componentType": 5123,
      "count": 46112,
      "normalized": true,
      "byteOffset": 0,
      "bufferView": 3
    }
  ],
  "bufferViews": [
    {
      "buffer": 1,
      "byteOffset": 0,
      "byteLength": 498768,
      "target": 34963,
      "extensions": {
        "EXT_meshopt_compression": {
          "buffer": 0,
          "byteOffset": 0,
          "byteLength": 95774,
          "mode": "TRIANGLES",
          "byteStride": 2,
          "count": 249384
        }
      }
    },
    {
      "buffer": 1,
      "byteOffset": 498768,
      "byteLength": 184448,
      "target": 34962,
      "byteStride": 4,
      "extensions": {
        "EXT_meshopt_compression": {
          "buffer": 0,
          "byteOffset": 95776,
          "byteLength": 93465,
          "mode": "ATTRIBUTES",
          "filter": "OCTAHEDRAL",
          "byteStride": 4,
          "count": 46112
        }
      }
    },
    {
      "buffer": 1,
      "byteOffset": 683216,
      "byteLength": 368896,
      "target": 34962,
      "byteStride": 8,
      "extensions": {
        "EXT_meshopt_compression": {
          "buffer": 0,
          "byteOffset": 189244,
          "byteLength": 183068,
          "mode": "ATTRIBUTES",
          "byteStride": 8,
          "count": 46112
        }
      }
    },
    {
      "buffer": 1,
      "byteOffset": 1052112,
      "byteLength": 184448,
      "target": 34962,
      "byteStride": 4,
      "extensions": {
        "EXT_meshopt_compression": {
          "buffer": 0,
          "byteOffset": 372312,
          "byteLength": 128275,
          "mode": "ATTRIBUTES",
          "byteStride": 4,
          "count": 46112
        }
      }
    }
  ],
  "samplers": [
    {
      "magFilter": 9729,
      "minFilter": 9987,
      "wrapS": 10497,
      "wrapT": 10497
    }
  ],
  "textures": [
    {
      "source": 1,
      "sampler": 0
    },
    {
      "source": 0,
      "sampler": 0
    },
    {
      "source": 2,
      "sampler": 0
    }
  ],
  "images": [
    {
      "name": "dead_tree_trunk_02_nor_gl",
      "mimeType": "image/jpeg",
      "uri": "textures/dead_tree_trunk_02_nor_gl_1k.jpg"
    },
    {
      "name": "dead_tree_trunk_02_diff",
      "mimeType": "image/jpeg",
      "uri": "textures/dead_tree_trunk_02_diff_1k.jpg"
    },
    {
      "name": "dead_tree_trunk_02_rough",
      "mimeType": "image/jpeg",
      "uri": "textures/dead_tree_trunk_02_arm_1k.jpg"
    }
  ],
  "buffers": [
    {
      "uri": "dead_tree_trunk_02.bin",
      "byteLength": 500588
    },
    {
      "byteLength": 1236560,
      "extensions": {
        "EXT_meshopt_compression": {
          "fallback": true
        }
      }
    }
  ],
  "materials": [
    {
      "name": "dead_tree_trunk_02",
      "doubleSided": true,
      "pbrMetallicRoughness": {
        "metallicFactor": 0,
        "baseColorTexture": {
          "index": 0
        },
        "metallicRoughnessTexture": {
          "index": 2
        }
      },
      "normalTexture": {
        "index": 1
      }
    }
  ],
  "meshes": [
    {
      "name": "fallen_log_5m_PROXY.002",
      "primitives": [
        {
          "attributes": {
            "NORMAL": 1,
            "POSITION": 2,
            "TEXCOORD_0": 3
          },
          "mode": 4,
          "material": 0,
          "indices": 0
        }
      ]
    }
  ],
  "nodes": [
    {
      "name": "dead_tree_trunk_02",
      "translation": [
        0.10126489400863647,
        0.19918443262577057,
        0.0272427499294281
      ],
      "scale": [
        2.025681793689728,
        2.025681793689728,
        2.025681793689728
      ],
      "mesh": 0
    }
  ],
  "scenes": [
    {
      "name": "Scene",
      "nodes": [
        0
      ]
    }
  ],
  "scene": 0,
  "extensionsUsed": [
    "EXT_meshopt_compression",
    "KHR_mesh_quantization"
  ],
  "extensionsRequired": [
    "EXT_meshopt_compression",
    "KHR_mesh_quantization"
  ]
}