{
  "asset": {
    "generator": "glTF-Transform v4.4.2",
    "version": "2.0"
  },
  "accessors": [
    {
      "type": "SCALAR",
      "componentType": 5123,
      "count": 24000,
      "normalized": false,
      "byteOffset": 0,
      "bufferView": 0
    },
    {
      "type": "VEC3",
      "componentType": 5120,
      "count": 4154,
      "normalized": true,
      "byteOffset": 0,
      "bufferView": 1
    },
    {
      "type": "SCALAR",
      "componentType": 5123,
      "count": 23682,
      "normalized": false,
      "byteOffset": 48000,
      "bufferView": 0
    },
    {
      "type": "VEC3",
      "componentType": 5120,
      "count": 4109,
      "normalized": true,
      "byteOffset": 0,
      "bufferView": 2
    },
    {
      "type": "SCALAR",
      "componentType": 5123,
      "count": 23997,
      "normalized": false,
      "byteOffset": 95364,
      "bufferView": 0
    },
    {
      "type": "VEC3",
      "componentType": 5120,
      "count": 4317,
      "normalized": true,
      "byteOffset": 0,
      "bufferView": 3
    },
    {
      "type": "SCALAR",
      "componentType": 5123,
      "count": 23784,
      "normalized": false,
      "byteOffset": 143358,
      "bufferView": 0
    },
    {
      "type": "VEC3",
      "componentType": 5120,
      "count": 4189,
      "normalized": true,
      "byteOffset": 0,
      "bufferView": 4
    },
    {
      "type": "SCALAR",
      "componentType": 5123,
      "count": 24000,
      "normalized": false,
      "byteOffset": 190926,
      "bufferView": 0
    },
    {
      "type": "VEC3",
      "componentType": 5120,
      "count": 4162,
      "normalized": true,
      "byteOffset": 0,
      "bufferView": 5
    },
    {
      "type": "SCALAR",
      "componentType": 5123,
      "count": 24000,
      "normalized": false,
      "byteOffset": 238926,
      "bufferView": 0
    },
    {
      "type": "VEC3",
      "componentType": 5120,
      "count": 4230,
      "normalized": true,
      "byteOffset": 0,
      "bufferView": 6
    },
    {
      "type": "SCALAR",
      "componentType": 5123,
      "count": 29478,
      "normalized": false,
      "byteOffset": 286926,
      "bufferView": 0
    },
    {
      "type": "VEC3",
      "componentType": 5120,
      "count": 5173,
      "normalized": true,
      "byteOffset": 0,
      "bufferView": 7
    },
    {
      "type": "VEC3",
      "componentType": 5122,
      "count": 4154,
      "max": [
        32767,
        14361,
        26719
      ],
      "min": [
        -32767,
        -14361,
        -26719
      ],
      "normalized": true,
      "byteOffset": 0,
      "bufferView": 8
    },
    {
      "type": "VEC2",
      "componentType": 5123,
      "count": 4154,
      "normalized": true,
      "byteOffset": 0,
      "bufferView": 9
    },
    {
      "type": "VEC3",
      "componentType": 5122,
      "count": 4109,
      "max": [
        32767,
        12269,
        20346
      ],
      "min": [
        -32767,
        -12269,
        -20346
      ],
      "normalized": true,
      "byteOffset": 0,
      "bufferView": 10
    },
    {
      "type": "VEC2",
      "componentType": 5123,
      "count": 4109,
      "normalized": true,
      "byteOffset": 0,
      "bufferView": 11
    },
    {
      "type": "VEC3",
      "componentType": 5122,
      "count": 4317,
      "max": [
        32767,
        15269,
        29943
      ],
      "min": [
        -32767,
        -15269,
        -29943
      ],
      "normalized": true,
      "byteOffset": 0,
      "bufferView": 12
    },
    {
      "type": "VEC2",
      "componentType": 5123,
      "count": 4317,
      "normalized": true,
      "byteOffset": 0,
      "bufferView": 13
    },
    {
      "type": "VEC3",
      "componentType": 5122,
      "count": 4189,
      "max": [
        32767,
        19686,
        17834
      ],
      "min": [
        -32767,
        -19686,
        -17834
      ],
      "normalized": true,
      "byteOffset": 0,
      "bufferView": 14
    },
    {
      "type": "VEC2",
      "componentType": 5123,
      "count": 4189,
      "normalized": true,
      "byteOffset": 0,
      "bufferView": 15
    },
    {
      "type": "VEC3",
      "componentType": 5122,
      "count": 4162,
      "max": [
        32767,
        11429,
        23078
      ],
      "min": [
        -32767,
        -11429,
        -23078
      ],
      "normalized": true,
      "byteOffset": 0,
      "bufferView": 16
    },
    {
      "type": "VEC2",
      "componentType": 5123,
      "count": 4162,
      "normalized": true,
      "byteOffset": 0,
      "bufferView": 17
    },
    {
      "type": "VEC3",
      "componentType": 5122,
      "count": 4230,
      "max": [
        32767,
        21978,
        25643
      ],
      "min": [
        -32767,
        -21978,
        -25643
      ],
      "normalized": true,
      "byteOffset": 0,
      "bufferView": 18
    },
    {
      "type": "VEC2",
      "componentType": 5123,
      "count": 4230,
      "normalized": true,
      "byteOffset": 0,
      "bufferView": 19
    },
    {
      "type": "VEC3",
      "componentType": 5122,
      "count": 5173,
      "max": [
        32767,
        14413,
        23518
      ],
      "min": [
        -32767,
        -14413,
        -23518
      ],
      "normalized": true,
      "byteOffset": 0,
      "bufferView": 20
    },
    {
      "type": "VEC2",
      "componentType": 5123,
      "count": 5173,
      "normalized": true,
      "byteOffset": 0,
      "bufferView": 21
    }
  ],
  "bufferViews": [
    {
      "buffer": 1,
      "byteOffset": 0,
      "byteLength": 345882,
      "target": 34963,
      "extensions": {
        "EXT_meshopt_compression": {
          "buffer": 0,
          "byteOffset": 0,
          "byteLength": 66418,
          "mode": "TRIANGLES",
          "byteStride": 2,
          "count": 172941
        }
      }
    },
    {
      "buffer": 1,
      "byteOffset": 345884,
      "byteLength": 16616,
      "target": 34962,
      "byteStride": 4,
      "extensions": {
        "EXT_meshopt_compression": {
          "buffer": 0,
          "byteOffset": 66420,
          "byteLength": 8320,
          "mode": "ATTRIBUTES",
          "filter": "OCTAHEDRAL",
          "byteStride": 4,
          "count": 4154
        }
      }
    },
    {
      "buffer": 1,
      "byteOffset": 362500,
      "byteLength": 16436,
      "target": 34962,
      "byteStride": 4,
      "extensions": {
        "EXT_meshopt_compression": {
          "buffer": 0,
          "byteOffset": 74740,
          "byteLength": 7949,
          "mode": "ATTRIBUTES",
          "filter": "OCTAHEDRAL",
          "byteStride": 4,
          "count": 4109
        }
      }
    },
    {
      "buffer": 1,
      "byteOffset": 378936,
      "byteLength": 17268,
      "target": 34962,
      "byteStride": 4,
      "extensions": {
        "EXT_meshopt_compression": {
          "buffer": 0,
          "byteOffset": 82692,
          "byteLength": 8797,
          "mode": "ATTRIBUTES",
          "filter": "OCTAHEDRAL",
          "byteStride": 4,
          "count": 4317
        }
      }
    },
    {
      "buffer": 1,
      "byteOffset": 396204,
      "byteLength": 16756,
      "target": 34962,
      "byteStride": 4,
      "extensions": {
        "EXT_meshopt_compression": {
          "buffer": 0,
          "byteOffset": 91492,
          "byteLength": 8050,
          "mode": "ATTRIBUTES",
          "filter": "OCTAHEDRAL",
          "byteStride": 4,
          "count": 4189
        }
      }
    },
    {
      "buffer": 1,
      "byteOffset": 412960,
      "byteLength": 16648,
      "target": 34962,
      "byteStride": 4,
      "extensions": {
        "EXT_meshopt_compression": {
          "buffer": 0,
          "byteOffset": 99544,
          "byteLength": 7799,
          "mode": "ATTRIBUTES",
          "filter": "OCTAHEDRAL",
          "byteStride": 4,
          "count": 4162
        }
      }
    },
    {
      "buffer": 1,
      "byteOffset": 429608,
      "byteLength": 16920,
      "target": 34962,
      "byteStride": 4,
      "extensions": {
        "EXT_meshopt_compression": {
          "buffer": 0,
          "byteOffset": 107344,
          "byteLength": 8100,
          "mode": "ATTRIBUTES",
          "filter": "OCTAHEDRAL",
          "byteStride": 4,
          "count": 4230
        }
      }
    },
    {
      "buffer": 1,
      "byteOffset": 446528,
      "byteLength": 20692,
      "target": 34962,
      "byteStride": 4,
      "extensions": {
        "EXT_meshopt_compression": {
          "buffer": 0,
          "byteOffset": 115444,
          "byteLength": 9252,
          "mode": "ATTRIBUTES",
          "filter": "OCTAHEDRAL",
          "byteStride": 4,
          "count": 5173
        }
      }
    },
    {
      "buffer": 1,
      "byteOffset": 467220,
      "byteLength": 33232,
      "target": 34962,
      "byteStride": 8,
      "extensions": {
        "EXT_meshopt_compression": {
          "buffer": 0,
          "byteOffset": 124696,
          "byteLength": 20068,
          "mode": "ATTRIBUTES",
          "byteStride": 8,
          "count": 4154
        }
      }
    },
    {
      "buffer": 1,
      "byteOffset": 500452,
      "byteLength": 16616,
      "target": 34962,
      "byteStride": 4,
      "extensions": {
        "EXT_meshopt_compression": {
          "buffer": 0,
          "byteOffset": 144764,
          "byteLength": 11588,
          "mode": "ATTRIBUTES",
          "byteStride": 4,
          "count": 4154
        }
      }
    },
    {
      "buffer": 1,
      "byteOffset": 517068,
      "byteLength": 32872,
      "target": 34962,
      "byteStride": 8,
      "extensions": {
        "EXT_meshopt_compression": {
          "buffer": 0,
          "byteOffset": 156352,
          "byteLength": 19139,
          "mode": "ATTRIBUTES",
          "byteStride": 8,
          "count": 4109
        }
      }
    },
    {
      "buffer": 1,
      "byteOffset": 549940,
      "byteLength": 16436,
      "target": 34962,
      "byteStride": 4,
      "extensions": {
        "EXT_meshopt_compression": {
          "buffer": 0,
          "byteOffset": 175492,
          "byteLength": 11227,
          "mode": "ATTRIBUTES",
          "byteStride": 4,
          "count": 4109
        }
      }
    },
    {
      "buffer": 1,
      "byteOffset": 566376,
      "byteLength": 34536,
      "target": 34962,
      "byteStride": 8,
      "extensions": {
        "EXT_meshopt_compression": {
          "buffer": 0,
          "byteOffset": 186720,
          "byteLength": 20774,
          "mode": "ATTRIBUTES",
          "byteStride": 8,
          "count": 4317
        }
      }
    },
    {
      "buffer": 1,
      "byteOffset": 600912,
      "byteLength": 17268,
      "target": 34962,
      "byteStride": 4,
      "extensions": {
        "EXT_meshopt_compression": {
          "buffer": 0,
          "byteOffset": 207496,
          "byteLength": 11968,
          "mode": "ATTRIBUTES",
          "byteStride": 4,
          "count": 4317
        }
      }
    },
    {
      "buffer": 1,
      "byteOffset": 618180,
      "byteLength": 33512,
      "target": 34962,
      "byteStride": 8,
      "extensions": {
        "EXT_meshopt_compression": {
          "buffer": 0,
          "byteOffset": 219464,
          "byteLength": 19898,
          "mode": "ATTRIBUTES",
          "byteStride": 8,
          "count": 4189
        }
      }
    },
    {
      "buffer": 1,
      "byteOffset": 651692,
      "byteLength": 16756,
      "target": 34962,
      "byteStride": 4,
      "extensions": {
        "EXT_meshopt_compression": {
          "buffer": 0,
          "byteOffset": 239364,
          "byteLength": 11468,
          "mode": "ATTRIBUTES",
          "byteStride": 4,
          "count": 4189
        }
      }
    },
    {
      "buffer": 1,
      "byteOffset": 668448,
      "byteLength": 33296,
      "target": 34962,
      "byteStride": 8,
      "extensions": {
        "EXT_meshopt_compression": {
          "buffer": 0,
          "byteOffset": 250832,
          "byteLength": 19536,
          "mode": "ATTRIBUTES",
          "byteStride": 8,
          "count": 4162
        }
      }
    },
    {
      "buffer": 1,
      "byteOffset": 701744,
      "byteLength": 16648,
      "target": 34962,
      "byteStride": 4,
      "extensions": {
        "EXT_meshopt_compression": {
          "buffer": 0,
          "byteOffset": 270368,
          "byteLength": 11255,
          "mode": "ATTRIBUTES",
          "byteStride": 4,
          "count": 4162
        }
      }
    },
    {
      "buffer": 1,
      "byteOffset": 718392,
      "byteLength": 33840,
      "target": 34962,
      "byteStride": 8,
      "extensions": {
        "EXT_meshopt_compression": {
          "buffer": 0,
          "byteOffset": 281624,
          "byteLength": 20373,
          "mode": "ATTRIBUTES",
          "byteStride": 8,
          "count": 4230
        }
      }
    },
    {
      "buffer": 1,
      "byteOffset": 752232,
      "byteLength": 16920,
      "target": 34962,
      "byteStride": 4,
      "extensions": {
        "EXT_meshopt_compression": {
          "buffer": 0,
          "byteOffset": 302000,
          "byteLength": 11487,
          "mode": "ATTRIBUTES",
          "byteStride": 4,
          "count": 4230
        }
      }
    },
    {
      "buffer": 1,
      "byteOffset": 769152,
      "byteLength": 41384,
      "target": 34962,
      "byteStride": 8,
      "extensions": {
        "EXT_meshopt_compression": {
          "buffer": 0,
          "byteOffset": 313488,
          "byteLength": 24363,
          "mode": "ATTRIBUTES",
          "byteStride": 8,
          "count": 5173
        }
      }
    },
    {
      "buffer": 1,
      "byteOffset": 810536,
      "byteLength": 20692,
      "target": 34962,
      "byteStride": 4,
      "extensions": {
        "EXT_meshopt_compression": {
          "buffer": 0,
          "byteOffset": 337852,
          "byteLength": 13897,
          "mode": "ATTRIBUTES",
          "byteStride": 4,
          "count": 5173
        }
      }
    }
  ],
  "samplers": [
    {
      "magFilter": 9729,
      "minFilter": 9987,
      "wrapS": 10497,
      "wrapT": 10497
    }
  ],
  "textures": [
    {
      "source": 1,
      "sampler": 0
    },
    {
      "source": 0,
      "sampler": 0
    },
    {
      "source": 2,
      "sampler": 0
    }
  ],
  "images": [
    {
      "name": "rock_moss_set_02_nor_gl",
      "mimeType": "image/jpeg",
      "uri": "textures/rock_moss_set_02_nor_gl_1k.jpg"
    },
    {
      "name": "rock_moss_set_02_diff",
      "mimeType": "image/jpeg",
      "uri": "textures/rock_moss_set_02_diff_1k.jpg"
    },
    {
      "name": "rock_moss_set_02_rough",
      "mimeType": "image/jpeg",
      "uri": "textures/rock_moss_set_02_rough_1k.jpg"
    }
  ],
  "buffers": [
    {
      "uri": "rock_moss_set_02.bin",
      "byteLength": 351752
    },
    {
      "byteLength": 831228,
      "extensions": {
        "EXT_meshopt_compression": {
          "fallback": true
        }
      }
    }
  ],
  "materials": [
    {
      "name": "rock_moss_set_02",
      "doubleSided": true,
      "pbrMetallicRoughness": {
        "metallicFactor": 0,
        "baseColorTexture": {
          "index": 0
        },
        "metallicRoughnessTexture": {
          "index": 2
        }
      },
      "normalTexture": {
        "index": 1
      }
    }
  ],
  "meshes": [
    {
      "name": "low.001",
      "primitives": [
        {
          "attributes": {
            "NORMAL": 1,
            "POSITION": 14,
            "TEXCOORD_0": 15
          },
          "mode": 4,
          "material": 0,
          "indices": 0
        }
      ]
    },
    {
      "name": "moss rock 10.001",
      "primitives": [
        {
          "attributes": {
            "NORMAL": 3,
            "POSITION": 16,
            "TEXCOORD_0": 17
          },
          "mode": 4,
          "material": 0,
          "indices": 2
        }
      ]
    },
    {
      "name": "moss rock 13",
      "primitives": [
        {
          "attributes": {
            "NORMAL": 5,
            "POSITION": 18,
            "TEXCOORD_0": 19
          },
          "mode": 4,
          "material": 0,
          "indices": 4
        }
      ]
    },
    {
      "name": "moss rock 14.001",
      "primitives": [
        {
          "attributes": {
            "NORMAL": 7,
            "POSITION": 20,
            "TEXCOORD_0": 21
          },
          "mode": 4,
          "material": 0,
          "indices": 6
        }
      ]
    },
    {
      "name": "moss rock 11.001",
      "primitives": [
        {
          "attributes": {
            "NORMAL": 9,
            "POSITION": 22,
            "TEXCOORD_0": 23
          },
          "mode": 4,
          "material": 0,
          "indices": 8
        }
      ]
    },
    {
      "name": "moss rock 12",
      "primitives": [
        {
          "attributes": {
            "NORMAL": 11,
            "POSITION": 24,
            "TEXCOORD_0": 25
          },
          "mode": 4,
          "material": 0,
          "indices": 10
        }
      ]
    },
    {
      "name": "low.004",
      "primitives": [
        {
          "attributes": {
            "NORMAL": 13,
            "POSITION": 26,
            "TEXCOORD_0": 27
          },
          "mode": 4,
          "material": 0,
          "indices": 12
        }
      ]
    }
  ],
  "nodes": [
    {
      "name": "rock_moss_set_02_rock08",
      "translation": [
        -0.8987061381340027,
        0.25333211943507195,
        0.7765518724918365
      ],
      "scale": [
        0.6031656861305237,
        0.6031656861305237,
        0.6031656861305237
      ],
      "mesh": 0
    },
    {
      "name": "rock_moss_set_02_rock09",
      "translation": [
        0.8906520009040833,
        0.26705061458051205,
        0.7085054069757462
      ],
      "scale": [
        0.8144641518592834,
        0.8144641518592834,
        0.8144641518592834
      ],
      "mesh": 1
    },
    {
      "name": "rock_moss_set_02_rock12",
      "translation": [
        0.1917996108531952,
        0.33578394539654255,
        -0.9653597474098206
      ],
      "scale": [
        0.7897762954235077,
        0.7897762954235077,
        0.7897762954235077
      ],
      "mesh": 2
    },
    {
      "name": "rock_moss_set_02_rock13",
      "translation": [
        2.6264320611953735,
        0.3130377233028412,
        -1.1234323172830045
      ],
      "scale": [
        1.0457146167755127,
        1.0457146167755127,
        1.0457146167755127
      ],
      "mesh": 3
    },
    {
      "name": "rock_moss_set_02_rock10",
      "translation": [
        3.368045449256897,
        0.35990763641893864,
        0.7201122343540192
      ],
      "scale": [
        1.1014617681503296,
        1.1014617681503296,
        1.1014617681503296
      ],
      "mesh": 4
    },
    {
      "name": "rock_moss_set_02_rock11",
      "translation": [
        -2.1333660781383514,
        0.3979276716709137,
        -1.1500452160835266
      ],
      "scale": [
        0.976849228143692,
        0.976849228143692,
        0.976849228143692
      ],
      "mesh": 5
    },
    {
      "name": "rock_moss_set_02_rock07",
      "translation": [
        -2.9621419673047917,
        0.279520222001417,
        0.7238921239419405
      ],
      "scale": [
        0.8465042255285802,
        0.8465042255285802,
        0.8465042255285802
      ],
      "mesh": 6
    }
  ],
  "scenes": [
    {
      "name": "Scene",
      "nodes": [
        0,
        1,
        2,
        3,
        4,
        5,
        6
      ]
    }
  ],
  "scene": 0,
  "extensionsUsed": [
    "EXT_meshopt_compression",
    "KHR_mesh_quantization"
  ],
  "extensionsRequired": [
    "EXT_meshopt_compression",
    "KHR_mesh_quantization"
  ]
}