{
  "asset": {
    "generator": "glTF-Transform v4.4.2",
    "version": "2.0"
  },
  "accessors": [
    {
      "type": "SCALAR",
      "componentType": 5123,
      "count": 115464,
      "normalized": false,
      "byteOffset": 0,
      "bufferView": 0
    },
    {
      "type": "VEC3",
      "componentType": 5120,
      "count": 22878,
      "normalized": true,
      "byteOffset": 0,
      "bufferView": 1
    },
    {
      "type": "SCALAR",
      "componentType": 5123,
      "count": 145866,
      "normalized": false,
      "byteOffset": 230928,
      "bufferView": 0
    },
    {
      "type": "VEC3",
      "componentType": 5120,
      "count": 28720,
      "normalized": true,
      "byteOffset": 0,
      "bufferView": 2
    },
    {
      "type": "SCALAR",
      "componentType": 5123,
      "count": 195186,
      "normalized": false,
      "byteOffset": 522660,
      "bufferView": 0
    },
    {
      "type": "VEC3",
      "componentType": 5120,
      "count": 39748,
      "normalized": true,
      "byteOffset": 0,
      "bufferView": 3
    },
    {
      "type": "SCALAR",
      "componentType": 5123,
      "count": 123702,
      "normalized": false,
      "byteOffset": 913032,
      "bufferView": 0
    },
    {
      "type": "VEC3",
      "componentType": 5120,
      "count": 24555,
      "normalized": true,
      "byteOffset": 0,
      "bufferView": 4
    },
    {
      "type": "VEC3",
      "componentType": 5122,
      "count": 22878,
      "max": [
        15397,
        5396,
        32767
      ],
      "min": [
        -15397,
        -5396,
        -32767
      ],
      "normalized": true,
      "byteOffset": 0,
      "bufferView": 5
    },
    {
      "type": "VEC2",
      "componentType": 5123,
      "count": 22878,
      "normalized": true,
      "byteOffset": 0,
      "bufferView": 6
    },
    {
      "type": "VEC3",
      "componentType": 5122,
      "count": 28720,
      "max": [
        14385,
        6220,
        32767
      ],
      "min": [
        -14385,
        -6220,
        -32767
      ],
      "normalized": true,
      "byteOffset": 0,
      "bufferView": 7
    },
    {
      "type": "VEC2",
      "componentType": 5123,
      "count": 28720,
      "normalized": true,
      "byteOffset": 0,
      "bufferView": 8
    },
    {
      "type": "VEC3",
      "componentType": 5122,
      "count": 39748,
      "max": [
        8421,
        5596,
        32767
      ],
      "min": [
        -8421,
        -5596,
        -32767
      ],
      "normalized": true,
      "byteOffset": 0,
      "bufferView": 9
    },
    {
      "type": "VEC2",
      "componentType": 5123,
      "count": 39748,
      "normalized": true,
      "byteOffset": 0,
      "bufferView": 10
    },
    {
      "type": "VEC3",
      "componentType": 5122,
      "count": 24555,
      "max": [
        7448,
        5900,
        32767
      ],
      "min": [
        -7448,
        -5900,
        -32767
      ],
      "normalized": true,
      "byteOffset": 0,
      "bufferView": 11
    },
    {
      "type": "VEC2",
      "componentType": 5123,
      "count": 24555,
      "normalized": true,
      "byteOffset": 0,
      "bufferView": 12
    }
  ],
  "bufferViews": [
    {
      "buffer": 1,
      "byteOffset": 0,
      "byteLength": 1160436,
      "target": 34963,
      "extensions": {
        "EXT_meshopt_compression": {
          "buffer": 0,
          "byteOffset": 0,
          "byteLength": 220212,
          "mode": "TRIANGLES",
          "byteStride": 2,
          "count": 580218
        }
      }
    },
    {
      "buffer": 1,
      "byteOffset": 1160436,
      "byteLength": 91512,
      "target": 34962,
      "byteStride": 4,
      "extensions": {
        "EXT_meshopt_compression": {
          "buffer": 0,
          "byteOffset": 220212,
          "byteLength": 47136,
          "mode": "ATTRIBUTES",
          "filter": "OCTAHEDRAL",
          "byteStride": 4,
          "count": 22878
        }
      }
    },
    {
      "buffer": 1,
      "byteOffset": 1251948,
      "byteLength": 114880,
      "target": 34962,
      "byteStride": 4,
      "extensions": {
        "EXT_meshopt_compression": {
          "buffer": 0,
          "byteOffset": 267348,
          "byteLength": 59197,
          "mode": "ATTRIBUTES",
          "filter": "OCTAHEDRAL",
          "byteStride": 4,
          "count": 28720
        }
      }
    },
    {
      "buffer": 1,
      "byteOffset": 1366828,
      "byteLength": 158992,
      "target": 34962,
      "byteStride": 4,
      "extensions": {
        "EXT_meshopt_compression": {
          "buffer": 0,
          "byteOffset": 326548,
          "byteLength": 81991,
          "mode": "ATTRIBUTES",
          "filter": "OCTAHEDRAL",
          "byteStride": 4,
          "count": 39748
        }
      }
    },
    {
      "buffer": 1,
      "byteOffset": 1525820,
      "byteLength": 98220,
      "target": 34962,
      "byteStride": 4,
      "extensions": {
        "EXT_meshopt_compression": {
          "buffer": 0,
          "byteOffset": 408540,
          "byteLength": 50658,
          "mode": "ATTRIBUTES",
          "filter": "OCTAHEDRAL",
          "byteStride": 4,
          "count": 24555
        }
      }
    },
    {
      "buffer": 1,
      "byteOffset": 1624040,
      "byteLength": 183024,
      "target": 34962,
      "byteStride": 8,
      "extensions": {
        "EXT_meshopt_compression": {
          "buffer": 0,
          "byteOffset": 459200,
          "byteLength": 100722,
          "mode": "ATTRIBUTES",
          "byteStride": 8,
          "count": 22878
        }
      }
    },
    {
      "buffer": 1,
      "byteOffset": 1807064,
      "byteLength": 91512,
      "target": 34962,
      "byteStride": 4,
      "extensions": {
        "EXT_meshopt_compression": {
          "buffer": 0,
          "byteOffset": 559924,
          "byteLength": 61351,
          "mode": "ATTRIBUTES",
          "byteStride": 4,
          "count": 22878
        }
      }
    },
    {
      "buffer": 1,
      "byteOffset": 1898576,
      "byteLength": 229760,
      "target": 34962,
      "byteStride": 8,
      "extensions": {
        "EXT_meshopt_compression": {
          "buffer": 0,
          "byteOffset": 621276,
          "byteLength": 121464,
          "mode": "ATTRIBUTES",
          "byteStride": 8,
          "count": 28720
        }
      }
    },
    {
      "buffer": 1,
      "byteOffset": 2128336,
      "byteLength": 114880,
      "target": 34962,
      "byteStride": 4,
      "extensions": {
        "EXT_meshopt_compression": {
          "buffer": 0,
          "byteOffset": 742740,
          "byteLength": 75989,
          "mode": "ATTRIBUTES",
          "byteStride": 4,
          "count": 28720
        }
      }
    },
    {
      "buffer": 1,
      "byteOffset": 2243216,
      "byteLength": 317984,
      "target": 34962,
      "byteStride": 8,
      "extensions": {
        "EXT_meshopt_compression": {
          "buffer": 0,
          "byteOffset": 818732,
          "byteLength": 163492,
          "mode": "ATTRIBUTES",
          "byteStride": 8,
          "count": 39748
        }
      }
    },
    {
      "buffer": 1,
      "byteOffset": 2561200,
      "byteLength": 158992,
      "target": 34962,
      "byteStride": 4,
      "extensions": {
        "EXT_meshopt_compression": {
          "buffer": 0,
          "byteOffset": 982224,
          "byteLength": 104829,
          "mode": "ATTRIBUTES",
          "byteStride": 4,
          "count": 39748
        }
      }
    },
    {
      "buffer": 1,
      "byteOffset": 2720192,
      "byteLength": 196440,
      "target": 34962,
      "byteStride": 8,
      "extensions": {
        "EXT_meshopt_compression": {
          "buffer": 0,
          "byteOffset": 1087056,
          "byteLength": 104557,
          "mode": "ATTRIBUTES",
          "byteStride": 8,
          "count": 24555
        }
      }
    },
    {
      "buffer": 1,
      "byteOffset": 2916632,
      "byteLength": 98220,
      "target": 34962,
      "byteStride": 4,
      "extensions": {
        "EXT_meshopt_compression": {
          "buffer": 0,
          "byteOffset": 1191616,
          "byteLength": 66058,
          "mode": "ATTRIBUTES",
          "byteStride": 4,
          "count": 24555
        }
      }
    }
  ],
  "samplers": [
    {
      "magFilter": 9729,
      "minFilter": 9987,
      "wrapS": 10497,
      "wrapT": 10497
    }
  ],
  "textures": [
    {
      "source": 1,
      "sampler": 0
    },
    {
      "source": 0,
      "sampler": 0
    },
    {
      "source": 2,
      "sampler": 0
    }
  ],
  "images": [
    {
      "name": "bark_debris_01_nor_gl",
      "mimeType": "image/jpeg",
      "uri": "textures/bark_debris_01_nor_gl_1k.jpg"
    },
    {
      "name": "bark_debris_01_diff",
      "mimeType": "image/jpeg",
      "uri": "textures/bark_debris_01_diff_1k.jpg"
    },
    {
      "name": "bark_debris_01_rough",
      "mimeType": "image/jpeg",
      "uri": "textures/bark_debris_01_arm_1k.jpg"
    }
  ],
  "buffers": [
    {
      "uri": "bark_debris_01.bin",
      "byteLength": 1257676
    },
    {
      "byteLength": 3014852,
      "extensions": {
        "EXT_meshopt_compression": {
          "fallback": true
        }
      }
    }
  ],
  "materials": [
    {
      "name": "bark_debris_01",
      "doubleSided": true,
      "pbrMetallicRoughness": {
        "metallicFactor": 0,
        "baseColorTexture": {
          "index": 0
        },
        "metallicRoughnessTexture": {
          "index": 2
        }
      },
      "normalTexture": {
        "index": 1
      }
    }
  ],
  "meshes": [
    {
      "name": "bark_debris_04_5m.004",
      "primitives": [
        {
          "attributes": {
            "NORMAL": 1,
            "POSITION": 8,
            "TEXCOORD_0": 9
          },
          "mode": 4,
          "material": 0,
          "indices": 0
        }
      ]
    },
    {
      "name": "bark_debris_04_5m.005",
      "primitives": [
        {
          "attributes": {
            "NORMAL": 3,
            "POSITION": 10,
            "TEXCOORD_0": 11
          },
          "mode": 4,
          "material": 0,
          "indices": 2
        }
      ]
    },
    {
      "name": "bark_debris_04_5m.006",
      "primitives": [
        {
          "attributes": {
            "NORMAL": 5,
            "POSITION": 12,
            "TEXCOORD_0": 13
          },
          "mode": 4,
          "material": 0,
          "indices": 4
        }
      ]
    },
    {
      "name": "bark_debris_04_5m",
      "primitives": [
        {
          "attributes": {
            "NORMAL": 7,
            "POSITION": 14,
            "TEXCOORD_0": 15
          },
          "mode": 4,
          "material": 0,
          "indices": 6
        }
      ]
    }
  ],
  "nodes": [
    {
      "name": "bark_debris_01_a",
      "translation": [
        -0.5134955644607544,
        0.013716568006202579,
        -0.0011991634964942932
      ],
      "scale": [
        0.19933704286813736,
        0.19933704286813736,
        0.19933704286813736
      ],
      "mesh": 0
    },
    {
      "name": "bark_debris_01_b",
      "translation": [
        -0.12017807364463806,
        0.005033515160903335,
        -0.04396907985210419
      ],
      "scale": [
        0.2326376736164093,
        0.2326376736164093,
        0.2326376736164093
      ],
      "mesh": 1
    },
    {
      "name": "bark_debris_01_c",
      "translation": [
        0.18209438025951385,
        0.005792341893538833,
        -0.0966271422803402
      ],
      "scale": [
        0.28576233983039856,
        0.28576233983039856,
        0.28576233983039856
      ],
      "mesh": 2
    },
    {
      "name": "bark_debris_01_d",
      "translation": [
        0.5339528769254684,
        -0.0030058531556278467,
        -0.01077171042561531
      ],
      "scale": [
        0.30289024114608765,
        0.30289024114608765,
        0.30289024114608765
      ],
      "mesh": 3
    }
  ],
  "scenes": [
    {
      "name": "Scene",
      "nodes": [
        0,
        1,
        2,
        3
      ]
    }
  ],
  "scene": 0,
  "extensionsUsed": [
    "EXT_meshopt_compression",
    "KHR_mesh_quantization"
  ],
  "extensionsRequired": [
    "EXT_meshopt_compression",
    "KHR_mesh_quantization"
  ]
}