{
  "asset": {
    "generator": "glTF-Transform v4.4.2",
    "version": "2.0"
  },
  "accessors": [
    {
      "type": "SCALAR",
      "componentType": 5123,
      "count": 81894,
      "normalized": false,
      "byteOffset": 0,
      "bufferView": 0
    },
    {
      "type": "VEC3",
      "componentType": 5120,
      "count": 15219,
      "normalized": true,
      "byteOffset": 0,
      "bufferView": 1
    },
    {
      "type": "SCALAR",
      "componentType": 5125,
      "count": 2144232,
      "normalized": false,
      "byteOffset": 0,
      "bufferView": 2
    },
    {
      "type": "VEC3",
      "componentType": 5120,
      "count": 625401,
      "normalized": true,
      "byteOffset": 0,
      "bufferView": 3
    },
    {
      "type": "SCALAR",
      "componentType": 5125,
      "count": 990513,
      "normalized": false,
      "byteOffset": 8576928,
      "bufferView": 2
    },
    {
      "type": "VEC3",
      "componentType": 5120,
      "count": 233874,
      "normalized": true,
      "byteOffset": 0,
      "bufferView": 4
    },
    {
      "type": "VEC3",
      "componentType": 5122,
      "count": 15219,
      "max": [
        18538,
        14225,
        20942
      ],
      "min": [
        -18186,
        -26527,
        -21426
      ],
      "normalized": true,
      "byteOffset": 0,
      "bufferView": 5
    },
    {
      "type": "VEC2",
      "componentType": 5123,
      "count": 15219,
      "normalized": true,
      "byteOffset": 0,
      "bufferView": 6
    },
    {
      "type": "VEC3",
      "componentType": 5122,
      "count": 625401,
      "max": [
        30535,
        26527,
        31699
      ],
      "min": [
        -29711,
        -6836,
        -31699
      ],
      "normalized": true,
      "byteOffset": 0,
      "bufferView": 7
    },
    {
      "type": "VEC2",
      "componentType": 5123,
      "count": 625401,
      "normalized": true,
      "byteOffset": 0,
      "bufferView": 8
    },
    {
      "type": "VEC3",
      "componentType": 5122,
      "count": 233874,
      "max": [
        32767,
        26271,
        30871
      ],
      "min": [
        -32767,
        -6572,
        -31047
      ],
      "normalized": true,
      "byteOffset": 0,
      "bufferView": 9
    },
    {
      "type": "VEC2",
      "componentType": 5123,
      "count": 233874,
      "normalized": true,
      "byteOffset": 0,
      "bufferView": 10
    }
  ],
  "bufferViews": [
    {
      "buffer": 1,
      "byteOffset": 0,
      "byteLength": 163788,
      "target": 34963,
      "extensions": {
        "EXT_meshopt_compression": {
          "buffer": 0,
          "byteOffset": 0,
          "byteLength": 31217,
          "mode": "TRIANGLES",
          "byteStride": 2,
          "count": 81894
        }
      }
    },
    {
      "buffer": 1,
      "byteOffset": 163788,
      "byteLength": 60876,
      "target": 34962,
      "byteStride": 4,
      "extensions": {
        "EXT_meshopt_compression": {
          "buffer": 0,
          "byteOffset": 31220,
          "byteLength": 28300,
          "mode": "ATTRIBUTES",
          "filter": "OCTAHEDRAL",
          "byteStride": 4,
          "count": 15219
        }
      }
    },
    {
      "buffer": 1,
      "byteOffset": 224664,
      "byteLength": 12538980,
      "target": 34963,
      "extensions": {
        "EXT_meshopt_compression": {
          "buffer": 0,
          "byteOffset": 59520,
          "byteLength": 1073343,
          "mode": "TRIANGLES",
          "byteStride": 4,
          "count": 3134745
        }
      }
    },
    {
      "buffer": 1,
      "byteOffset": 12763644,
      "byteLength": 2501604,
      "target": 34962,
      "byteStride": 4,
      "extensions": {
        "EXT_meshopt_compression": {
          "buffer": 0,
          "byteOffset": 1132864,
          "byteLength": 1208405,
          "mode": "ATTRIBUTES",
          "filter": "OCTAHEDRAL",
          "byteStride": 4,
          "count": 625401
        }
      }
    },
    {
      "buffer": 1,
      "byteOffset": 15265248,
      "byteLength": 935496,
      "target": 34962,
      "byteStride": 4,
      "extensions": {
        "EXT_meshopt_compression": {
          "buffer": 0,
          "byteOffset": 2341272,
          "byteLength": 482098,
          "mode": "ATTRIBUTES",
          "filter": "OCTAHEDRAL",
          "byteStride": 4,
          "count": 233874
        }
      }
    },
    {
      "buffer": 1,
      "byteOffset": 16200744,
      "byteLength": 121752,
      "target": 34962,
      "byteStride": 8,
      "extensions": {
        "EXT_meshopt_compression": {
          "buffer": 0,
          "byteOffset": 2823372,
          "byteLength": 64732,
          "mode": "ATTRIBUTES",
          "byteStride": 8,
          "count": 15219
        }
      }
    },
    {
      "buffer": 1,
      "byteOffset": 16322496,
      "byteLength": 60876,
      "target": 34962,
      "byteStride": 4,
      "extensions": {
        "EXT_meshopt_compression": {
          "buffer": 0,
          "byteOffset": 2888104,
          "byteLength": 44282,
          "mode": "ATTRIBUTES",
          "byteStride": 4,
          "count": 15219
        }
      }
    },
    {
      "buffer": 1,
      "byteOffset": 16383372,
      "byteLength": 5003208,
      "target": 34962,
      "byteStride": 8,
      "extensions": {
        "EXT_meshopt_compression": {
          "buffer": 0,
          "byteOffset": 2932388,
          "byteLength": 2468023,
          "mode": "ATTRIBUTES",
          "byteStride": 8,
          "count": 625401
        }
      }
    },
    {
      "buffer": 1,
      "byteOffset": 21386580,
      "byteLength": 2501604,
      "target": 34962,
      "byteStride": 4,
      "extensions": {
        "EXT_meshopt_compression": {
          "buffer": 0,
          "byteOffset": 5400412,
          "byteLength": 2509548,
          "mode": "ATTRIBUTES",
          "byteStride": 4,
          "count": 625401
        }
      }
    },
    {
      "buffer": 1,
      "byteOffset": 23888184,
      "byteLength": 1870992,
      "target": 34962,
      "byteStride": 8,
      "extensions": {
        "EXT_meshopt_compression": {
          "buffer": 0,
          "byteOffset": 7909960,
          "byteLength": 920171,
          "mode": "ATTRIBUTES",
          "byteStride": 8,
          "count": 233874
        }
      }
    },
    {
      "buffer": 1,
      "byteOffset": 25759176,
      "byteLength": 935496,
      "target": 34962,
      "byteStride": 4,
      "extensions": {
        "EXT_meshopt_compression": {
          "buffer": 0,
          "byteOffset": 8830132,
          "byteLength": 700825,
          "mode": "ATTRIBUTES",
          "byteStride": 4,
          "count": 233874
        }
      }
    }
  ],
  "samplers": [
    {
      "magFilter": 9729,
      "minFilter": 9987,
      "wrapS": 10497,
      "wrapT": 10497
    }
  ],
  "textures": [
    {
      "source": 1,
      "sampler": 0
    },
    {
      "source": 0,
      "sampler": 0
    },
    {
      "source": 2,
      "sampler": 0
    },
    {
      "source": 4,
      "sampler": 0
    },
    {
      "source": 3,
      "sampler": 0
    },
    {
      "source": 5,
      "sampler": 0
    },
    {
      "source": 7,
      "sampler": 0
    },
    {
      "source": 6,
      "sampler": 0
    },
    {
      "source": 8,
      "sampler": 0
    }
  ],
  "images": [
    {
      "name": "island_tree_02_nor_gl",
      "mimeType": "image/jpeg",
      "uri": "textures/island_tree_02_nor_gl_1k.jpg"
    },
    {
      "name": "island_tree_02_diff",
      "mimeType": "image/jpeg",
      "uri": "textures/island_tree_02_diff_1k.jpg"
    },
    {
      "name": "island_tree_02_rough",
      "mimeType": "image/jpeg",
      "uri": "textures/island_tree_02_arm_1k.jpg"
    },
    {
      "name": "island_tree_02_leaves_nor_gl",
      "mimeType": "image/jpeg",
      "uri": "textures/island_tree_02_leaves_nor_gl_1k.jpg"
    },
    {
      "name": "island_tree_02_leaves_diff-island_tree_02_leaves_alpha",
      "mimeType": "image/jpeg",
      "uri": "textures/island_tree_02_leaves_diff_1k.jpg"
    },
    {
      "name": "island_tree_02_leaves_rough",
      "mimeType": "image/jpeg",
      "uri": "textures/island_tree_02_leaves_arm_1k.jpg"
    },
    {
      "name": "island_tree_02_branches_nor_gl",
      "mimeType": "image/jpeg",
      "uri": "textures/island_tree_02_branches_nor_gl_1k.jpg"
    },
    {
      "name": "island_tree_02_branches_diff",
      "mimeType": "image/jpeg",
      "uri": "textures/island_tree_02_branches_diff_1k.jpg"
    },
    {
      "name": "island_tree_02_branches_rough",
      "mimeType": "image/jpeg",
      "uri": "textures/island_tree_02_branches_arm_1k.jpg"
    }
  ],
  "buffers": [
    {
      "uri": "island_tree_02.bin",
      "byteLength": 9530960
    },
    {
      "byteLength": 26694672,
      "extensions": {
        "EXT_meshopt_compression": {
          "fallback": true
        }
      }
    }
  ],
  "materials": [
    {
      "name": "island_tree_02",
      "doubleSided": true,
      "pbrMetallicRoughness": {
        "metallicFactor": 0,
        "baseColorTexture": {
          "index": 0
        },
        "metallicRoughnessTexture": {
          "index": 2
        }
      },
      "normalTexture": {
        "index": 1
      }
    },
    {
      "name": "island_tree_02_leaves",
      "alphaMode": "BLEND",
      "doubleSided": true,
      "pbrMetallicRoughness": {
        "metallicFactor": 0,
        "baseColorTexture": {
          "index": 3
        },
        "metallicRoughnessTexture": {
          "index": 5
        }
      },
      "normalTexture": {
        "index": 4
      }
    },
    {
      "name": "island_tree_02_branches",
      "doubleSided": true,
      "pbrMetallicRoughness": {
        "metallicFactor": 0,
        "baseColorTexture": {
          "index": 6,
          "extensions": {
            "KHR_texture_transform": {
              "offset": [
                0,
                -2.4000000953674316
              ],
              "scale": [
                15,
                3.4000000953674316
              ]
            }
          }
        },
        "metallicRoughnessTexture": {
          "index": 8,
          "extensions": {
            "KHR_texture_transform": {
              "offset": [
                0,
                -2.4000000953674316
              ],
              "scale": [
                15,
                3.4000000953674316
              ]
            }
          }
        }
      },
      "normalTexture": {
        "index": 7,
        "scale": 0.5,
        "extensions": {
          "KHR_texture_transform": {
            "offset": [
              0,
              -2.4000000953674316
            ],
            "scale": [
              15,
              3.4000000953674316
            ]
          }
        }
      },
      "extensions": {
        "KHR_materials_ior": {
          "ior": 1.4500000476837158
        },
        "KHR_materials_specular": {
          "specularFactor": 0.4100000262260437
        }
      }
    }
  ],
  "meshes": [
    {
      "name": "mesh.001",
      "primitives": [
        {
          "attributes": {
            "NORMAL": 1,
            "POSITION": 6,
            "TEXCOORD_0": 7
          },
          "mode": 4,
          "material": 0,
          "indices": 0
        },
        {
          "attributes": {
            "NORMAL": 3,
            "POSITION": 8,
            "TEXCOORD_0": 9
          },
          "mode": 4,
          "material": 1,
          "indices": 2
        },
        {
          "attributes": {
            "NORMAL": 5,
            "POSITION": 10,
            "TEXCOORD_0": 11
          },
          "mode": 4,
          "material": 2,
          "indices": 4
        }
      ]
    }
  ],
  "nodes": [
    {
      "name": "island_tree_02_LOD0",
      "translation": [
        0.05153477191925049,
        1.6862911796197295,
        0.9211944937705994
      ],
      "scale": [
        2.1038726568222046,
        2.1038726568222046,
        2.1038726568222046
      ],
      "mesh": 0
    }
  ],
  "scenes": [
    {
      "name": "Scene",
      "nodes": [
        0
      ]
    }
  ],
  "scene": 0,
  "extensionsUsed": [
    "EXT_meshopt_compression",
    "KHR_materials_ior",
    "KHR_materials_specular",
    "KHR_mesh_quantization",
    "KHR_texture_transform"
  ],
  "extensionsRequired": [
    "EXT_meshopt_compression",
    "KHR_mesh_quantization",
    "KHR_texture_transform"
  ]
}